<svg xmlns="http://www.w3.org/2000/svg" viewBox="0 0 32 32" role="img" aria-label="Logo favicon">
  <rect width="32" height="32" rx="6" fill="#1e1f23"/>
  <g id="logo" transform="translate(0.4 0.4) scale(0.95)">
    <path d="M19.8417 2.25339C20.0952 2.50873 20.1744 2.7477 20.1684 3.08173C20.1447 3.34544 20.0801 3.60271 20.0181 3.86119C19.9771 4.03234 19.9379 4.20379 19.8989 4.37528C19.8912 4.40885 19.8835 4.44243 19.8757 4.47703C19.8187 4.72989 19.7734 4.98277 19.7381 5.23866C19.6866 5.60952 19.6087 5.97393 19.5249 6.34018C19.4339 6.73812 19.3509 7.13538 19.2872 7.53749C19.1598 8.33472 18.9853 9.12539 18.8198 9.9171C18.7467 10.2669 18.6754 10.6169 18.6047 10.9671C18.5335 11.3186 18.4563 11.6686 18.3735 12.0182C18.3085 12.2981 18.258 12.5793 18.2086 12.8615C18.1263 13.3293 18.0139 13.7878 17.8879 14.248C17.8011 14.5656 17.8011 14.5656 17.8155 14.8889C17.907 15.0256 17.907 15.0256 18.0593 15.1018C18.2285 15.1018 18.3434 15.0974 18.4803 15.0059C18.5648 14.9114 18.5812 14.8381 18.6058 14.7203C18.6151 14.6771 18.6244 14.634 18.6339 14.5895C18.6481 14.5191 18.6481 14.5191 18.6626 14.4473C18.6729 14.3984 18.6832 14.3494 18.6938 14.2991C18.7268 14.141 18.7588 13.9829 18.7905 13.8247C18.8062 13.7465 18.8062 13.7465 18.8222 13.6667C18.8742 13.4062 18.9256 13.1455 18.9766 12.8848C19.0555 12.4819 19.0555 12.4819 19.0844 12.3353C19.0947 12.2832 19.0947 12.2832 19.1051 12.23C19.1183 12.1659 19.1183 12.1659 19.1318 12.1005C19.142 12.0513 19.142 12.0513 19.1523 12.001C19.1989 11.7805 19.2531 11.5633 19.3163 11.346C19.4535 10.8723 19.542 10.3989 19.615 9.91482C19.6492 9.68866 19.6853 9.46274 19.7216 9.23683C19.7327 9.16736 19.7327 9.16736 19.7441 9.09649C19.8261 8.59124 19.9224 8.08825 20.0215 7.58538C20.0296 7.54405 20.0377 7.50272 20.0461 7.46013C20.1157 7.10688 20.1858 6.75382 20.2641 6.40195C20.3509 6.0109 20.4081 5.61962 20.4593 5.22405C20.5698 4.37853 20.5698 4.37853 20.9356 4.11852C21.197 3.96087 21.4576 3.95883 21.7643 3.99081C22.0676 4.05464 22.2857 4.15917 22.488 4.36663C22.6616 4.65138 22.655 4.95558 22.6497 5.26943C22.6492 5.31428 22.6488 5.35914 22.6484 5.40535C22.6468 5.54403 22.6445 5.68268 22.6419 5.82135C22.6412 5.862 22.6405 5.90264 22.6399 5.94452C22.595 8.55577 22.3747 11.1993 21.9269 13.7815C21.8693 14.1148 21.8179 14.4486 21.768 14.7828C21.7602 14.8344 21.7525 14.886 21.7445 14.9391C21.7143 15.1407 21.6841 15.3423 21.6542 15.544C21.6341 15.6799 21.6135 15.8158 21.5928 15.9517C21.5869 15.992 21.581 16.0323 21.575 16.0738C21.5167 16.4518 21.5167 16.4518 21.4231 16.5918C21.0792 16.6894 20.7125 16.7083 20.3542 16.7439C19.677 16.8119 19.0118 16.9053 18.3457 17.0333C18.2083 17.0595 18.0707 17.0843 17.933 17.1089C17.0537 17.2699 16.2005 17.5106 15.378 17.8263C15.3019 17.8522 15.2257 17.878 15.1495 17.9035C14.8903 17.9931 14.6406 18.099 14.3894 18.2041C14.1829 18.2898 13.9755 18.3687 13.7627 18.4413C12.4852 18.8781 11.2741 19.5579 10.1617 20.2529C10.1022 20.2895 10.0427 20.3262 9.98322 20.3628C9.84107 20.4505 9.69964 20.539 9.5587 20.6282C9.48168 20.677 9.40443 20.7254 9.32718 20.7738C9.04099 20.9566 8.77669 21.1503 8.51852 21.3617C8.34512 21.5032 8.16544 21.6314 7.97568 21.7556C7.8204 21.8623 7.67847 21.981 7.53597 22.1004C7.4186 22.177 7.33199 22.1957 7.18786 22.2111C7.15161 22.0654 7.12917 21.924 7.11722 21.7753C7.11363 21.7314 7.11004 21.6875 7.10634 21.6423C7.10079 21.5711 7.10079 21.5711 7.09512 21.4984C7.09112 21.4483 7.08713 21.3983 7.08301 21.3468C7.07001 21.1826 7.05731 21.0184 7.04465 20.8542C7.04023 20.7974 7.0358 20.7407 7.03136 20.684C6.97233 19.9269 6.92475 19.17 6.89231 18.4117C6.85594 17.5654 6.7923 16.7259 6.65465 15.8869C6.57367 15.364 6.53098 14.8372 6.48097 14.3116C6.47551 14.2546 6.47003 14.1977 6.46455 14.1408C6.40164 13.487 6.34043 12.8334 6.29416 12.1786C6.26737 11.8011 6.23338 11.4243 6.19817 11.0474C6.10283 10.0227 6.0129 8.99701 6.00261 7.96852C6.00175 7.92096 6.00089 7.8734 6 7.8244C6.00041 7.40329 6.06983 7.05325 6.41432 6.74494C6.70164 6.51714 6.93222 6.46924 7.32611 6.4807C7.56299 6.51415 7.71661 6.59872 7.87037 6.75791C8.02699 6.97252 8.10778 7.15756 8.16154 7.40645C8.16943 7.44099 8.17731 7.47554 8.18543 7.51113C8.28579 7.96179 8.3669 8.41558 8.44863 8.86904C8.47735 9.02838 8.50636 9.18768 8.53544 9.34696C8.60291 9.71683 8.6699 10.0868 8.7367 10.4567C8.9971 11.8986 9.29548 13.334 9.61626 14.7665C9.62779 14.8183 9.63932 14.87 9.6512 14.9233C9.68433 15.0717 9.71775 15.2199 9.75127 15.3682C9.76101 15.4118 9.77075 15.4555 9.78078 15.5005C9.82874 15.7108 9.88093 15.92 9.9405 16.1281C9.95132 16.1661 9.96213 16.204 9.97327 16.2432C10.0103 16.3509 10.0103 16.3509 10.1617 16.4215C10.3423 16.4299 10.4771 16.429 10.6492 16.3789C10.6815 15.9557 10.5944 15.5658 10.4964 15.1543C10.4501 14.9595 10.4056 14.7645 10.3608 14.5695C10.3519 14.5308 10.343 14.4921 10.3338 14.4523C10.2603 14.1322 10.1953 13.8114 10.1342 13.4894C10.0507 13.0529 9.95528 12.6192 9.85392 12.1857C9.66882 11.3939 9.50857 10.5985 9.34909 9.80258C9.303 9.57338 9.25502 9.34455 9.2053 9.11593C9.14712 8.8476 9.09552 8.57878 9.04648 8.30908C8.98367 7.97123 8.91039 7.6372 8.82406 7.30335C8.6896 6.78149 8.58777 6.25577 8.48692 5.72829C8.45429 5.56031 8.42028 5.39257 8.38587 5.22486C8.37444 5.16869 8.36301 5.11252 8.35159 5.05635C8.32993 4.95003 8.30805 4.84376 8.28589 4.73752C8.14378 4.03348 8.14378 4.03348 8.37997 3.69747C8.5853 3.45297 8.84437 3.28724 9.18664 3.22453C9.6667 3.18041 9.99097 3.2541 10.3658 3.51721C10.8504 3.86586 10.9319 4.57529 11.0605 5.08435C11.0796 5.15859 11.0988 5.23283 11.1181 5.30706C11.1561 5.45395 11.1939 5.60087 11.2314 5.74785C11.2983 6.00937 11.3664 6.27063 11.4353 6.53175C11.4467 6.57516 11.4582 6.61857 11.4699 6.66329C11.6994 7.52775 11.9559 8.38663 12.2113 9.24547C12.2712 9.44716 12.3303 9.649 12.3884 9.85111C12.8174 11.7682 12.8174 11.7682 13.9155 13.399C14.0828 13.4624 14.0828 13.4624 14.2567 13.4415C14.4941 13.2987 14.6105 13.16 14.7168 12.9254C14.7308 12.8958 14.7448 12.8663 14.7592 12.8359C14.8041 12.7401 14.8474 12.6439 14.8905 12.5475C14.9125 12.4992 14.9125 12.4992 14.9349 12.4499C15.1433 11.9891 15.3079 11.5257 15.443 11.0448C15.4777 10.922 15.5134 10.7993 15.5492 10.6768C15.6401 10.3642 15.7288 10.0511 15.8167 9.73787C15.826 9.70487 15.8353 9.67188 15.8449 9.63788C16.0958 8.74471 16.3385 7.8517 16.5318 6.94747C16.5885 6.68579 16.6517 6.43098 16.7455 6.17722C16.8479 5.89944 16.9026 5.6224 16.9532 5.33445C17.0661 4.72848 17.2188 4.13563 17.3859 3.53951C17.4385 3.3476 17.4861 3.15479 17.5331 2.96177C17.6591 2.56994 18.0003 2.31197 18.3933 2.11503C18.869 1.91776 19.4144 1.98087 19.8417 2.25339Z" fill="#FBFBFB"/>
    <path d="M25.6251 13.7432C25.797 13.8794 25.9224 14.011 25.9944 14.2169C26.0163 14.4667 25.9769 14.5961 25.8317 14.8034C25.7968 14.8549 25.7619 14.9064 25.727 14.9579C25.7087 14.9844 25.6904 15.0109 25.6716 15.0382C25.3272 15.5392 25.0476 16.0526 24.8117 16.6079C24.7982 16.6394 24.7847 16.671 24.7708 16.7034C24.2583 17.9242 24.2189 19.2704 24.1439 20.5689C24.0707 21.836 23.9845 23.0831 23.6586 24.3168C23.6454 24.3673 23.6321 24.4177 23.6185 24.4697C23.4833 24.9618 23.3003 25.4132 23.0023 25.8366C22.9796 25.8692 22.957 25.9019 22.9336 25.9356C22.2227 26.9464 21.1754 27.9371 19.8919 28.2022C19.1578 28.3331 18.3224 28.3206 17.6212 28.0669C17.5722 28.0506 17.5232 28.0342 17.4727 28.0174C17.0057 27.849 16.5949 27.5987 16.2494 27.2549C16.1984 27.2061 16.1984 27.2061 16.1464 27.1563C15.8477 26.8558 15.6417 26.5381 15.4452 26.1721C15.4152 26.1174 15.4152 26.1174 15.3846 26.0616C14.9931 25.2514 15.0022 24.1376 15.2976 23.3024C15.7074 22.2621 16.2789 21.4857 17.1955 20.8035C17.2367 20.772 17.2779 20.7405 17.3204 20.708C18.3185 19.9756 19.7226 19.5295 20.9799 19.5403C20.9884 19.5103 20.9969 19.4803 21.0056 19.4494C21.1051 19.0988 21.2112 18.7502 21.319 18.4018C21.3939 18.1587 21.4666 17.9153 21.5349 17.6704C21.8224 16.6428 22.2086 15.5632 22.9668 14.7583C23.002 14.7199 23.0372 14.6815 23.0734 14.6419C23.1783 14.5289 23.2849 14.4178 23.3925 14.3071C23.4202 14.2777 23.4479 14.2484 23.4764 14.2181C23.6878 14.0028 23.9237 13.8575 24.1967 13.7206C24.241 13.6974 24.241 13.6974 24.2862 13.6738C24.6962 13.4918 25.2481 13.5044 25.6251 13.7432Z" fill="#FCFCFC"/>
    <path d="M20.9318 17.8815C20.9248 17.9841 20.9155 18.0865 20.9052 18.1889C20.9002 18.2459 20.8953 18.303 20.8902 18.3617C20.8372 18.5131 20.8372 18.5131 20.6947 18.5951C20.4902 18.6602 20.279 18.7015 20.0684 18.7443C19.654 18.8338 19.2508 18.9471 18.8474 19.0742C18.769 19.0985 18.769 19.0985 18.689 19.1233C18.1922 19.2829 17.745 19.4873 17.3223 19.7834C17.201 19.8624 17.0765 19.9301 16.9473 19.9966C16.6573 20.1461 16.4235 20.3073 16.1984 20.5397C16.1167 20.6231 16.0346 20.6925 15.941 20.7632C15.7108 20.9471 15.5325 21.1746 15.3497 21.4004C15.3081 21.451 15.3081 21.451 15.2656 21.5026C14.8824 21.9945 14.5152 22.5968 14.4036 23.205C14.3944 23.2474 14.3944 23.2474 14.385 23.2907C14.1827 24.2246 14.0984 25.3485 14.5455 26.2276C14.5614 26.2589 14.5773 26.2903 14.5936 26.3225C14.832 26.7873 15.0767 27.1978 15.4443 27.581C15.4799 27.6213 15.5155 27.6616 15.5522 27.7032C15.954 28.1513 16.3481 28.3032 16.9374 28.4664C17.0588 28.5006 17.18 28.5351 17.3012 28.5697C17.3859 28.5937 17.3859 28.5937 17.4722 28.6182C17.5883 28.6539 17.693 28.6923 17.8022 28.7429C17.9979 28.8166 18.1661 28.8174 18.3743 28.8132C18.4282 28.8134 18.4282 28.8134 18.4832 28.8137C18.7304 28.8114 18.9433 28.7709 19.1815 28.7089C19.3234 28.7033 19.3234 28.7033 19.418 28.7089C19.4123 28.8108 19.4123 28.8108 19.3707 28.9345C19.2478 29.0243 19.2478 29.0243 19.0839 29.1093C19.0545 29.1245 19.0251 29.1398 18.9948 29.1555C17.1656 30.0859 15.0146 30.2364 13.0323 29.662C12.6533 29.5433 12.2982 29.3779 11.9437 29.2051C11.9059 29.1869 11.8682 29.1687 11.8293 29.1499C11.2054 28.847 10.6268 28.5328 10.0932 28.097C9.93494 27.9694 9.77103 27.8506 9.60427 27.7333C9.58012 27.7128 9.55597 27.6924 9.53109 27.6713C9.53109 27.6415 9.53109 27.6117 9.53109 27.581C9.49987 27.581 9.46865 27.581 9.43648 27.581C9.43648 27.5513 9.43648 27.5215 9.43648 27.4908C9.40928 27.4804 9.38209 27.47 9.35407 27.4593C9.15031 27.3473 9.02392 27.151 8.88099 26.9764C8.82223 26.9052 8.76209 26.8351 8.70195 26.7649C8.40392 26.4137 8.17783 26.0464 7.97 25.6411C7.92967 25.564 7.92967 25.564 7.88851 25.4854C7.45899 24.6359 7.45899 24.6359 7.59156 24.2426C7.91484 23.6535 8.42009 23.2832 8.96342 22.8892C8.99346 22.8673 9.02351 22.8454 9.05446 22.8229C9.47637 22.5159 9.90575 22.2203 10.3405 21.9302C10.4914 21.8292 10.6398 21.7254 10.7877 21.6203C11.0496 21.4376 11.3241 21.2763 11.6002 21.1139C11.8082 20.9912 12.0136 20.8649 12.2186 20.7378C12.2865 20.6958 12.3544 20.6538 12.4223 20.6118C12.454 20.5922 12.4857 20.5726 12.5183 20.5523C12.6742 20.4559 12.8303 20.36 12.9876 20.2657C13.0616 20.2212 13.1356 20.1766 13.2089 20.131C14.0957 19.5803 15.0791 19.0913 16.0991 18.8122C16.21 18.7814 16.3198 18.748 16.4298 18.7144C16.9409 18.5598 17.4518 18.4482 17.9784 18.354C18.1654 18.3193 18.3511 18.2796 18.5369 18.2396C18.5722 18.2321 18.6075 18.2245 18.6439 18.2168C18.8005 18.1833 18.9571 18.1496 19.1136 18.1155C19.4314 18.0481 19.7502 17.991 20.0714 17.9407C20.1081 17.9348 20.1449 17.9289 20.1827 17.9227C20.4351 17.8846 20.6762 17.8764 20.9318 17.8815Z" fill="#FBFBFB"/>
  </g>
</svg>
