<svg viewBox="0 0 480 480" xmlns="http://www.w3.org/2000/svg" xmlns:xlink="http://www.w3.org/1999/xlink">
    <linearGradient id="a" gradientUnits="userSpaceOnUse" x1="240" x2="240" y1="478.92" y2="-64.696">
        <stop offset="0" stop-color="#e93e3a"></stop>
        <stop offset=".357" stop-color="#ed683c"></stop>
        <stop offset=".703" stop-color="#f3903f"></stop>
        <stop offset="1" stop-color="#fdc70c"></stop>
    </linearGradient>
    <g fill="url(#a)">
        <path d="m465.328125 199.425781-41.191406-3.441406c-3.253907-.238281-6.015625-2.46875-6.929688-5.601563-3.960937-14.164062-9.621093-27.800781-16.847656-40.613281-1.558594-2.867187-1.183594-6.398437.945313-8.875l26.71875-31.566406c5.339843-6.363281 4.953124-15.75-.894532-21.648437l-34.839844-34.808594c-5.917968-5.824219-15.289062-6.199219-21.65625-.871094l-31.578124 26.71875c-2.46875 2.128906-5.996094 2.507812-8.863282.953125-12.804687-7.230469-26.433594-12.898437-40.589844-16.871094-3.136718-.917969-5.367187-3.6875-5.601562-6.945312l-3.433594-41.183594c-.730468-8.265625-7.628906-14.6171875-15.925781-14.671875h-49.28125c-8.304687.046875-15.207031 6.402344-15.945313 14.671875l-3.414062 41.183594c-.234375 3.257812-2.464844 6.027343-5.601562 6.945312-14.164063 3.960938-27.800782 9.617188-40.613282 16.839844-2.867187 1.550781-6.394531 1.171875-8.863281-.953125l-31.554687-26.6875c-6.371094-5.320312-15.742188-4.929688-21.648438.902344l-34.847656 34.808594c-5.839844 5.90625-6.21875 15.292968-.871094 21.648437l26.710938 31.578125c2.136718 2.46875 2.515624 6.003906.953124 8.871094-7.234374 12.804687-12.898437 26.433594-16.871093 40.589844-.929688 3.113281-3.691407 5.324218-6.929688 5.554687l-41.191406 3.429687c-8.285156.738282-14.640625 7.660157-14.671875 15.976563v49.28125c.046875 8.300781 6.402344 15.203125 14.671875 15.933594l41.191406 3.441406c3.253907.238281 6.015625 2.46875 6.929688 5.601563 3.960937 14.164062 9.621093 27.800781 16.847656 40.613281 1.558594 2.867187 1.183594 6.398437-.945313 8.875l-26.695312 31.527343c-5.339844 6.363282-4.953125 15.746094.894531 21.648438l34.839844 34.847656c5.910156 5.832032 15.285156 6.222656 21.65625.902344l31.578125-26.71875c2.472656-2.121094 5.996094-2.496094 8.863281-.953125 12.816407 7.210937 26.453125 12.851563 40.617188 16.800781 3.132812.917969 5.367187 3.6875 5.597656 6.945313l3.433594 41.183593c.710937 8.261719 7.585937 14.628907 15.878906 14.710938h49.28125c8.304687-.046875 15.207031-6.402344 15.945313-14.671875l3.429687-41.183594c.234375-3.257812 2.464844-6.027343 5.601563-6.945312 14.164062-3.949219 27.800781-9.589844 40.613281-16.800781 2.867187-1.554688 6.394531-1.175782 8.867187.953124l31.574219 26.71875c6.367187 5.335938 15.75 4.945313 21.648437-.902343l34.847657-34.839844c5.855469-5.921875 6.214843-15.335937.832031-21.6875l-26.710938-31.578125c-2.136718-2.46875-2.515624-6.003906-.953124-8.871094 7.234374-12.804687 12.898437-26.433594 16.871093-40.589844.929688-3.113281 3.691407-5.324218 6.929688-5.554687l41.191406-3.429687c8.285156-.738282 14.640625-7.660157 14.671875-15.976563v-49.28125c-.046875-8.300781-6.402344-15.203125-14.671875-15.933594zm-1.328125 65.214844-41.191406 3.4375c-9.898438.800781-18.265625 7.644531-21.007813 17.1875-3.628906 12.929687-8.800781 25.375-15.402343 37.070313-4.824219 8.695312-3.761719 19.472656 2.671874 27.054687l26.722657 31.578125-34.847657 34.847656-31.578124-26.71875c-7.585938-6.429687-18.359376-7.496094-27.054688-2.671875-11.695312 6.59375-24.144531 11.753907-37.074219 15.375-9.542969 2.75-16.386719 11.117188-17.191406 21.015625l-3.40625 41.183594h-49.28125l-3.429687-41.183594c-.804688-9.902344-7.65625-18.269531-17.203126-21.015625-12.925781-3.628906-25.371093-8.800781-37.0625-15.402343-3.519531-1.976563-7.492187-3.011719-11.527343-3.007813-5.683594 0-11.1875 2.011719-15.527344 5.679687l-31.578125 26.722657-34.847656-34.847657 26.726562-31.578124c6.429688-7.585938 7.488282-18.359376 2.664063-27.054688-6.589844-11.695312-11.75-24.136719-15.375-37.066406-2.75-9.535156-11.117188-16.371094-21.007813-17.167969l-41.191406-3.4375v-49.28125l41.191406-3.4375c9.898438-.800781 18.265625-7.644531 21.007813-17.1875 3.628906-12.929687 8.800781-25.375 15.402343-37.070313 4.824219-8.695312 3.761719-19.472656-2.671874-27.054687l-26.722657-31.578125 34.847657-34.847656 31.578124 26.71875c7.582032 6.4375 18.359376 7.5 27.054688 2.671875 11.695312-6.59375 24.144531-11.753907 37.074219-15.375 9.542969-2.75 16.386719-11.117188 17.191406-21.015625l3.40625-41.183594h49.28125l3.429687 41.183594c.804688 9.902344 7.65625 18.269531 17.203126 21.015625 12.925781 3.628906 25.371093 8.800781 37.0625 15.402343 8.695312 4.824219 19.472656 3.761719 27.054687-2.671874l31.578125-26.722657 34.847656 34.847657-26.726562 31.578124c-6.429688 7.585938-7.488282 18.359376-2.664063 27.054688 6.589844 11.695312 11.75 24.136719 15.375 37.066406 2.742188 9.542969 11.109375 16.390625 21.007813 17.191406l41.191406 3.414063zm0 0"
              fill="url(#a)" style="fill: white;"></path>
        <path d="m240 120c-66.273438 0-120 53.726562-120 120s53.726562 120 120 120 120-53.726562 120-120c-.074219-66.242188-53.757812-119.925781-120-120zm0 224c-57.4375 0-104-46.5625-104-104s46.5625-104 104-104 104 46.5625 104 104c-.066406 57.410156-46.589844 103.933594-104 104zm0 0"
              fill="url(#a)" style="fill: white;"></path>
    </g>
</svg>
