<svg width="32" height="32" viewBox="0 0 32 32" fill="none" xmlns="http://www.w3.org/2000/svg">
    <g clip-path="url(#clip0_1_10)">
        <path d="M16.6009 3.16758C16.4143 3.06068 16.203 3.00444 15.9879 3.00444C15.7729 3.00444 15.5616 3.06068 15.375 3.16758L5.2553 9.045C4.87038 9.26275 4.65405 9.67368 4.65405 10.1094V21.8882C4.65405 22.3235 4.89435 22.7346 5.2549 22.9526L15.3746 28.8298C15.5612 28.9367 15.7725 28.993 15.9876 28.993C16.2027 28.993 16.414 28.9367 16.6006 28.8298L26.7203 22.9524C27.1051 22.7346 27.3212 22.3235 27.3212 21.888V10.1094C27.3212 9.67388 27.0809 9.26296 26.7203 9.045L16.6009 3.16758Z"
              fill="url(#paint0_linear_1_10)"/>
        <path d="M26.7447 9.045L16.5771 3.16758C16.4772 3.11684 16.3725 3.07634 16.2645 3.04672L4.87079 22.6621C4.96503 22.778 5.07896 22.8763 5.20737 22.9526L15.3752 28.8298C15.6636 28.999 16 29.0475 16.3126 28.9506L27.0092 9.26275C26.939 9.17079 26.8484 9.09627 26.7447 9.045Z"
              fill="url(#paint1_linear_1_10)"/>
        <path d="M26.7449 22.952C27.0333 22.7828 27.2497 22.4925 27.3457 22.1781L16.2165 3.02194C15.9281 2.9736 15.6155 2.99777 15.3512 3.16718L5.25549 9.02043L16.1442 28.9988C16.2884 28.9744 16.457 28.9261 16.6012 28.8536L26.7449 22.952Z"
              fill="url(#paint2_linear_1_10)"/>
    </g>
    <defs>
        <linearGradient id="paint0_linear_1_10" x1="20.109" y1="7.54443" x2="10.8671" y2="26.2807"
                        gradientUnits="userSpaceOnUse">
            <stop stop-color="#3F873F"/>
            <stop offset="0.33" stop-color="#3F8B3D"/>
            <stop offset="0.637" stop-color="#3E9638"/>
            <stop offset="0.934" stop-color="#3DA92E"/>
            <stop offset="1" stop-color="#3DAE2B"/>
        </linearGradient>
        <linearGradient id="paint1_linear_1_10" x1="14.4503" y1="17.3743" x2="40.2361" y2="-1.56052"
                        gradientUnits="userSpaceOnUse">
            <stop offset="0.138" stop-color="#3F873F"/>
            <stop offset="0.402" stop-color="#52A044"/>
            <stop offset="0.713" stop-color="#64B749"/>
            <stop offset="0.908" stop-color="#6ABF4B"/>
        </linearGradient>
        <linearGradient id="paint2_linear_1_10" x1="4.28368" y1="15.9948" x2="27.7" y2="15.9948"
                        gradientUnits="userSpaceOnUse">
            <stop offset="0.092" stop-color="#6ABF4B"/>
            <stop offset="0.287" stop-color="#64B749"/>
            <stop offset="0.598" stop-color="#52A044"/>
            <stop offset="0.862" stop-color="#3F873F"/>
        </linearGradient>
        <clipPath id="clip0_1_10">
            <rect width="26" height="26" fill="white" transform="translate(3 3)"/>
        </clipPath>
    </defs>
</svg>
