<svg width="32" height="32" viewBox="0 0 32 32" fill="none" xmlns="http://www.w3.org/2000/svg">
    <g>
        <mask id="mask0_1_10" style="mask-type:luminance" maskUnits="userSpaceOnUse" x="3" y="3" width="26" height="26">
            <path d="M3 3H29V29H3V3Z" fill="white"/>
        </mask>
        <g mask="http://www.w3.org/2000/svg">
            <path d="M3 3H29V29H3V3Z" stroke="#4A4A4A" stroke-width="2"/>
        </g>
        <path fill-rule="evenodd" clip-rule="evenodd"
              d="M6.65614 20.3417C6.26724 20.3417 6.01114 20.5578 6.01114 20.846C6.01114 21.1014 6.1629 21.2716 6.50754 21.3699C6.82055 21.4616 6.88695 21.5074 6.88695 21.6515C6.88695 21.7824 6.76996 21.861 6.58974 21.861C6.41901 21.861 6.26408 21.7923 6.13445 21.6908L5.9321 21.9265C6.08702 22.0706 6.31151 22.1721 6.59923 22.1721C6.9818 22.1721 7.3043 21.9822 7.3043 21.622C7.3043 21.3142 7.11143 21.1701 6.76996 21.0752C6.4854 20.9933 6.41901 20.9409 6.41901 20.8263C6.41901 20.7216 6.5107 20.6528 6.67195 20.6528C6.82055 20.6528 6.95334 20.7019 7.09246 20.7936L7.25055 20.548C7.09246 20.4203 6.89643 20.3417 6.65614 20.3417ZM8.44885 21.7726L8.59113 22.0411C8.47098 22.1295 8.31922 22.1721 8.17062 22.1721C7.8418 22.1688 7.6679 21.9756 7.6679 21.6056V20.6921H7.40547V20.3909H7.6679V20.0078L8.0726 19.9586V20.3909H8.4615L8.4204 20.6921H8.0726V21.5958C8.0726 21.7661 8.12635 21.8348 8.24966 21.8348C8.3129 21.8348 8.37613 21.8152 8.44885 21.7726ZM10.172 20.3909L9.62819 22.1295C9.50172 22.5355 9.2551 22.7975 8.7587 22.8368L8.7176 22.5323C9.04958 22.4799 9.15708 22.3686 9.25194 22.123H9.11282L8.58165 20.3909H9.01164L9.37525 21.8447L9.75466 20.3909H10.172ZM10.8138 22.1721C10.9182 22.1721 11.013 22.1459 11.0826 22.1132L10.9972 21.8185C10.9688 21.8283 10.9403 21.8348 10.9024 21.8348C10.836 21.8348 10.8075 21.7955 10.8075 21.7137V19.6509L10.4028 19.6967V21.7268C10.4028 22.0116 10.5577 22.1721 10.8138 22.1721ZM12.7235 21.216C12.7235 21.2717 12.7172 21.3404 12.7141 21.3863H11.6644C11.6928 21.7399 11.8541 21.8545 12.0754 21.8545C12.224 21.8545 12.3473 21.8054 12.4927 21.7006L12.6603 21.9396C12.4959 22.0771 12.2935 22.1721 12.0406 22.1721C11.5221 22.1721 11.2438 21.8152 11.2438 21.2684C11.2438 20.7412 11.5126 20.3417 11.9869 20.3417C12.4548 20.3417 12.7235 20.6692 12.7235 21.216ZM12.322 21.1145V21.0948C12.322 20.81 12.224 20.6397 11.9963 20.6397C11.8066 20.6397 11.6865 20.7707 11.6644 21.1145H12.322ZM14.0894 19.6509L14.4941 19.6967V22.123H14.1368L14.1084 21.9036C14.0072 22.0608 13.846 22.1721 13.631 22.1721C13.2136 22.1721 12.9955 21.8086 12.9955 21.2586C12.9955 20.7248 13.2547 20.3417 13.6689 20.3417C13.846 20.3417 13.9851 20.4203 14.0894 20.5284V19.6509ZM13.7448 21.8545C13.8934 21.8545 13.9946 21.7792 14.0894 21.6318V20.8394C14.0009 20.7281 13.906 20.6561 13.7701 20.6561C13.5614 20.6561 13.4223 20.8394 13.4223 21.2553C13.4223 21.7006 13.5456 21.8545 13.7448 21.8545ZM6.66984 23.6161C6.18925 23.6161 5.88889 23.9926 5.88889 24.546C5.88889 25.0993 6.18925 25.4464 6.673 25.4464C6.888 25.4464 7.0619 25.3744 7.21366 25.2467L7.03344 24.9815C6.91013 25.0633 6.8216 25.1059 6.69513 25.1059C6.46749 25.1059 6.31888 24.9585 6.31888 24.5394C6.31888 24.1236 6.46116 23.9468 6.69513 23.9468C6.8216 23.9468 6.92278 23.9861 7.03344 24.0712L7.21366 23.8191C7.05557 23.6783 6.888 23.6161 6.66984 23.6161ZM8.19064 23.6161C8.68388 23.6161 8.97476 23.9631 8.97476 24.5296C8.97476 25.0764 8.68071 25.4464 8.18748 25.4464C7.69425 25.4464 7.4002 25.0993 7.4002 24.5296C7.4002 23.9861 7.69425 23.6161 8.19064 23.6161ZM8.19064 23.9337C7.95351 23.9337 7.82704 24.1203 7.82704 24.5296C7.82704 24.9454 7.95035 25.1288 8.18748 25.1288C8.42461 25.1288 8.54792 24.9422 8.54792 24.5296C8.54792 24.117 8.42461 23.9337 8.19064 23.9337ZM11.1279 23.6161C10.9066 23.6161 10.7517 23.7274 10.6252 23.9075C10.562 23.7241 10.4165 23.6161 10.2205 23.6161C10.0086 23.6161 9.85689 23.7176 9.73674 23.8911L9.70512 23.6652H9.35417V25.3973H9.75887V24.1924C9.85056 24.0319 9.93593 23.9304 10.0782 23.9304C10.1762 23.9304 10.2616 23.9926 10.2616 24.2087V25.3973H10.6663V24.1924C10.758 24.0319 10.8434 23.9304 10.9825 23.9304C11.0836 23.9304 11.1659 23.9926 11.1659 24.2087V25.3973H11.5706V24.1432C11.5706 23.8158 11.3935 23.6161 11.1279 23.6161ZM12.908 23.6161C13.3443 23.6161 13.5277 23.973 13.5277 24.5263C13.5277 25.0568 13.2905 25.4464 12.8669 25.4464C12.6961 25.4464 12.5507 25.3842 12.4464 25.2565V26.0653L12.0417 26.1111V23.6652H12.3958L12.4179 23.878C12.5507 23.6979 12.7278 23.6161 12.908 23.6161ZM12.7531 25.1255C12.9744 25.1255 13.104 24.9487 13.104 24.5296C13.104 24.0908 12.9902 23.9304 12.7878 23.9304C12.6456 23.9304 12.5254 24.0319 12.4464 24.1662V24.9455C12.5254 25.0666 12.6266 25.1255 12.7531 25.1255ZM14.609 23.6161C15.1022 23.6161 15.3931 23.9631 15.3931 24.5296C15.3931 25.0764 15.0991 25.4464 14.6058 25.4464C14.1126 25.4464 13.8186 25.0993 13.8186 24.5296C13.8186 23.9861 14.1126 23.6161 14.609 23.6161ZM14.609 23.9337C14.3719 23.9337 14.2454 24.1203 14.2454 24.5296C14.2454 24.9454 14.3687 25.1288 14.6058 25.1288C14.843 25.1288 14.9663 24.9422 14.9663 24.5296C14.9663 24.117 14.843 23.9337 14.609 23.9337ZM16.6641 23.6161C16.4523 23.6161 16.2847 23.7176 16.1551 23.8911L16.1235 23.6652H15.7725V25.3973H16.1772V24.1924C16.2752 24.0319 16.3827 23.9304 16.5282 23.9304C16.6547 23.9304 16.7337 23.9926 16.7337 24.2087V25.3973H17.1384V24.1432C17.1384 23.8125 16.9645 23.6161 16.6641 23.6161ZM18.9817 24.4903C18.9817 24.546 18.9754 24.6147 18.9722 24.6606H17.9225C17.951 25.0142 18.1122 25.1288 18.3335 25.1288C18.4821 25.1288 18.6055 25.0797 18.7509 24.9749L18.9185 25.2139C18.7541 25.3515 18.5517 25.4464 18.2988 25.4464C17.7802 25.4464 17.502 25.0895 17.502 24.5427C17.502 24.0155 17.7708 23.6161 18.245 23.6161C18.713 23.6161 18.9817 23.9435 18.9817 24.4903ZM18.5802 24.3888V24.3692C18.5802 24.0843 18.4821 23.914 18.2545 23.914C18.0648 23.914 17.9447 24.045 17.9225 24.3888H18.5802ZM20.2369 23.6161C20.0251 23.6161 19.8575 23.7176 19.7279 23.8911L19.6963 23.6652H19.3453V25.3973H19.75V24.1924C19.848 24.0319 19.9555 23.9304 20.101 23.9304C20.2274 23.9304 20.3065 23.9926 20.3065 24.2087V25.3973H20.7112V24.1432C20.7112 23.8125 20.5373 23.6161 20.2369 23.6161ZM21.998 25.047C21.9253 25.0895 21.8621 25.1092 21.7988 25.1092C21.6755 25.1092 21.6218 25.0404 21.6218 24.8701V23.9664H21.9696L22.0107 23.6652H21.6218V23.233L21.2171 23.2821V23.6652H20.9546V23.9664H21.2171V24.88C21.2171 25.25 21.391 25.4431 21.7198 25.4464C21.8684 25.4464 22.0202 25.4039 22.1403 25.3155L21.998 25.047ZM22.896 23.6161C22.5071 23.6161 22.251 23.8322 22.251 24.1203C22.251 24.3757 22.4027 24.546 22.7474 24.6442C23.0604 24.7359 23.1268 24.7817 23.1268 24.9258C23.1268 25.0568 23.0098 25.1354 22.8296 25.1354C22.6588 25.1354 22.5039 25.0666 22.3743 24.9651L22.1719 25.2008C22.3268 25.3449 22.5513 25.4464 22.839 25.4464C23.2216 25.4464 23.5441 25.2565 23.5441 24.8963C23.5441 24.5885 23.3512 24.4445 23.0098 24.3495C22.7252 24.2677 22.6588 24.2153 22.6588 24.1007C22.6588 23.9959 22.7505 23.9271 22.9118 23.9271C23.0604 23.9271 23.1932 23.9762 23.3323 24.0679L23.4904 23.8224C23.3323 23.6947 23.1362 23.6161 22.896 23.6161ZM9.77538 7.40667L6.59606 9.45313L9.77538 11.536L9.45042 11.9544L6.13937 9.80785V9.08931L9.48556 6.94281M26.1111 9.00746V9.71689L22.8001 11.8634L22.4751 11.4177L25.6456 9.36217L22.4751 7.29753L22.7561 6.85185"
              fill="#4A4A4A"/>
        <path d="M12.6296 13.4489H20.6296V5.44889H12.6296V13.4489Z" fill="black"/>
    </g>
    <defs>
        <clipPath id="clip0_1_10">
            <rect width="26" height="26" fill="white" transform="translate(3 3)"/>
        </clipPath>
    </defs>
</svg>
