<svg width="32" height="32" viewBox="0 0 32 32" fill="none" xmlns="http://www.w3.org/2000/svg">
    <path d="M7.31884 25.5977L4.11394 6.60546L10.0395 4.14664L13.8237 6.39523L17.2903 4.52506L24.513 7.29893L20.4627 27.8861L7.31884 25.5977Z"
          fill="url(#paint0_linear_1_10)"/>
    <path d="M27.8861 12.1644L24.8177 4.58702L19.2516 4.11374L10.6592 12.3702L12.9714 23.0103L17.2903 26.0388L27.8861 19.7515L25.2859 14.8757L27.8861 12.1644Z"
          fill="url(#paint1_linear_1_10)"/>
    <path d="M23.1236 11.0354L25.2859 14.8757L27.8859 12.1644L25.9769 7.44498L23.1236 11.0354Z"
          fill="url(#paint2_linear_1_10)"/>
    <path d="M8.57172 8.57172H23.4283V23.4283H8.57172V8.57172Z" fill="black"/>
    <path d="M10.4236 20.6203H15.9953V21.5494H10.4236V20.6203ZM15.6978 10.4214L14.8686 13.6718L13.9204 10.421H12.9769L12.0257 13.6722L11.1989 10.4214H9.89813L11.4906 15.9955H12.5355L13.4467 12.7683L14.348 15.9953H15.4057L16.9957 10.4212L15.6978 10.4214ZM17.2283 15.2001L17.9535 14.3313C18.4096 14.752 19.0027 14.993 19.6229 15.0098C20.118 15.0098 20.43 14.8113 20.43 14.482V14.467C20.43 14.1552 20.237 13.9966 19.3032 13.7569C18.1765 13.4697 17.4513 13.1571 17.4513 12.0478V12.0303C17.4513 11.018 18.2653 10.3466 19.407 10.3466C20.1606 10.3334 20.8948 10.585 21.4819 11.0576L20.8433 11.9836C20.4257 11.6573 19.9188 11.4655 19.3898 11.4337C18.9191 11.4337 18.6715 11.6495 18.6715 11.9288V11.9462C18.6715 12.3129 18.9193 12.4412 19.8777 12.6897C21.0115 12.9864 21.6509 13.3927 21.6509 14.3679V14.3829C21.6509 15.4922 20.8035 16.1166 19.5974 16.1166C18.7246 16.1198 17.8813 15.8015 17.2283 15.2224"
          fill="white"/>
    <defs>
        <linearGradient id="paint0_linear_1_10" x1="12.6245" y1="4.627" x2="18.7352" y2="26.7852"
                        gradientUnits="userSpaceOnUse">
            <stop offset="0.28" stop-color="#07C3F2"/>
            <stop offset="0.94" stop-color="#087CFA"/>
        </linearGradient>
        <linearGradient id="paint1_linear_1_10" x1="14.5385" y1="7.44096" x2="24.9182" y2="22.7206"
                        gradientUnits="userSpaceOnUse">
            <stop offset="0.14" stop-color="#FCF84A"/>
            <stop offset="0.37" stop-color="#07C3F2"/>
        </linearGradient>
        <linearGradient id="paint2_linear_1_10" x1="24.8459" y1="9.34653" x2="26.204" y2="14.19"
                        gradientUnits="userSpaceOnUse">
            <stop offset="0.28" stop-color="#07C3F2"/>
            <stop offset="0.94" stop-color="#087CFA"/>
        </linearGradient>
    </defs>
</svg>
