<svg width="32" height="32" viewBox="0 0 32 32" fill="none" xmlns="http://www.w3.org/2000/svg">
    <g clip-path="url(#clip0_1_10)">
        <path d="M16.0054 29.0108C23.1881 29.0108 29.0108 23.1881 29.0108 16.0054C29.0108 8.82272 23.1881 3 16.0054 3C8.82272 3 3 8.82272 3 16.0054C3 23.1881 8.82272 29.0108 16.0054 29.0108Z"
              fill="url(#paint0_linear_1_10)"/>
        <path fill-rule="evenodd" clip-rule="evenodd"
              d="M8.88005 15.8646C12.6701 14.2187 15.1933 13.1249 16.4602 12.5943C20.0662 11.0891 20.8242 10.8292 21.3115 10.8184C21.4198 10.8184 21.6581 10.8401 21.8205 10.97C21.9504 11.0783 21.9829 11.2191 22.0046 11.3274C22.0262 11.4356 22.0479 11.6631 22.0262 11.8363C21.8313 13.8938 20.9867 18.8859 20.5535 21.1816C20.3694 22.1562 20.0121 22.481 19.6656 22.5135C18.9075 22.5785 18.3336 22.0154 17.6081 21.5389C16.4602 20.7917 15.8213 20.3261 14.706 19.5898C13.4173 18.7451 14.2511 18.2795 14.9875 17.5214C15.1824 17.3265 18.5069 14.2945 18.5718 14.0237C18.5827 13.9913 18.5827 13.8613 18.5069 13.7963C18.4311 13.7314 18.3228 13.753 18.2362 13.7747C18.117 13.7963 16.2978 15.0092 12.7568 17.4023C12.237 17.7597 11.7713 17.9329 11.349 17.9221C10.8834 17.9113 9.99542 17.6622 9.32403 17.4456C8.51187 17.1858 7.86214 17.045 7.91629 16.5902C7.94877 16.3519 8.27364 16.1137 8.88005 15.8646Z"
              fill="white"/>
    </g>
    <defs>
        <linearGradient id="paint0_linear_1_10" x1="15.9946" y1="3" x2="15.9946" y2="28.8051"
                        gradientUnits="userSpaceOnUse">
            <stop stop-color="#2AABEE"/>
            <stop offset="1" stop-color="#229ED9"/>
        </linearGradient>
        <clipPath id="clip0_1_10">
            <rect width="26" height="26" fill="white" transform="translate(3 3)"/>
        </clipPath>
    </defs>

</svg>
